# Blender 4.2.0
# www.blender.org
mtllib computer monitor.mtl
o Cube
v 0.346403 0.829767 -0.388556
v 0.346403 0.245559 -0.388556
v 0.346403 0.829767 0.388556
v 0.346403 0.245559 0.388556
v -0.019602 0.799371 -0.364443
v -0.019602 0.275955 -0.364443
v -0.019602 0.799371 0.364443
v -0.019602 0.275955 0.364443
v 0.113001 0.159320 -0.481079
v 0.113001 0.159320 0.481079
v 0.113001 0.916006 0.481079
v 0.113001 0.916006 -0.481079
v -0.443721 0.346564 -0.266116
v -0.443721 0.346564 0.266116
v -0.443721 0.728762 0.266116
v -0.443721 0.728762 -0.266116
v 0.346403 0.916006 -0.481079
v 0.346403 0.159320 -0.481079
v 0.346403 0.916006 0.481079
v 0.346403 0.159320 0.481079
v 0.250750 0.806686 -0.357854
v 0.250750 0.268640 -0.357854
v 0.250750 0.806686 0.357854
v 0.250750 0.268640 0.357854
v -0.019602 0.275955 0.201456
v 0.113001 0.159320 -0.201456
v 0.113001 0.159320 0.201456
v -0.019602 0.275955 -0.201456
v 0.113001 0.149503 -0.201456
v 0.113001 0.149503 0.201456
v -0.379158 0.149503 -0.201456
v -0.379158 0.149503 0.201456
v -0.379159 0.335815 -0.201456
v -0.379158 0.335815 0.201456
v 0.278973 0.848488 -0.390192
v 0.297105 0.732753 -0.404678
v 0.307028 0.537663 -0.412606
v 0.297105 0.342573 -0.404678
v 0.278865 0.226148 -0.390106
v 0.287577 0.848488 -0.361895
v 0.306028 0.732753 -0.375330
v 0.316126 0.537663 -0.382683
v 0.306028 0.342573 -0.375330
v 0.287467 0.226148 -0.361815
v 0.318190 0.848488 -0.184493
v 0.337777 0.732753 -0.191342
v 0.348497 0.537663 -0.195090
v 0.337777 0.342573 -0.191342
v 0.318073 0.226148 -0.184452
v 0.328526 0.848488 0.000000
v 0.348497 0.732753 0.000000
v 0.359427 0.537663 0.000000
v 0.348497 0.342573 0.000000
v 0.328407 0.226148 0.000000
v 0.318190 0.848488 0.184493
v 0.337777 0.732753 0.191342
v 0.348497 0.537663 0.195090
v 0.337777 0.342573 0.191342
v 0.318073 0.226148 0.184452
v 0.287577 0.848488 0.361895
v 0.306028 0.732753 0.375330
v 0.316126 0.537663 0.382683
v 0.306028 0.342573 0.375330
v 0.287467 0.226148 0.361815
v 0.265457 0.848488 0.434647
v 0.283086 0.732753 0.450783
v 0.292735 0.537663 0.459614
v 0.283086 0.342573 0.450783
v 0.265352 0.226148 0.434551
v 0.346403 0.159320 0.201455
v 0.346403 0.159320 -0.201458
v 0.346403 0.245559 0.201455
v 0.346403 0.245559 -0.201463
v 0.250750 0.268640 0.201455
v 0.250750 0.268640 -0.201463
v 0.074921 0.027032 -0.376655
v 0.000000 0.027032 -0.384035
v 0.000000 0.097246 -0.194740
v 0.000000 0.149503 -0.194740
v 0.037992 0.097246 -0.190998
v 0.037992 0.149503 -0.190998
v 0.074524 0.097246 -0.179916
v 0.074524 0.149503 -0.179916
v 0.108192 0.097246 -0.161920
v 0.108192 0.149503 -0.161920
v 0.137702 0.097246 -0.137702
v 0.137702 0.149503 -0.137702
v 0.161920 0.097246 -0.108192
v 0.161920 0.149503 -0.108192
v 0.179916 0.097246 -0.074524
v 0.179916 0.149503 -0.074524
v 0.190998 0.097246 -0.037992
v 0.190998 0.149503 -0.037992
v 0.194740 0.097246 -0.000000
v 0.194740 0.149503 -0.000000
v 0.190998 0.097246 0.037992
v 0.190998 0.149503 0.037992
v 0.179916 0.097246 0.074524
v 0.179916 0.149503 0.074524
v 0.161920 0.097246 0.108192
v 0.161920 0.149503 0.108192
v 0.137702 0.097246 0.137702
v 0.137702 0.149503 0.137702
v 0.108192 0.097246 0.161920
v 0.108192 0.149503 0.161920
v 0.074524 0.097246 0.179916
v 0.074524 0.149503 0.179916
v 0.037992 0.097246 0.190998
v 0.037992 0.149503 0.190998
v 0.000000 0.097246 0.194740
v 0.000000 0.149503 0.194740
v -0.037992 0.097246 0.190998
v -0.037992 0.149503 0.190998
v -0.074524 0.097246 0.179916
v -0.074524 0.149503 0.179916
v -0.108192 0.097246 0.161920
v -0.108192 0.149503 0.161920
v -0.137702 0.097246 0.137702
v -0.137702 0.149503 0.137702
v -0.161920 0.097246 0.108192
v -0.161920 0.149503 0.108192
v -0.179916 0.097246 0.074524
v -0.179916 0.149503 0.074524
v -0.190998 0.097246 0.037992
v -0.190998 0.149503 0.037992
v -0.194740 0.097246 -0.000000
v -0.194740 0.149503 -0.000000
v -0.190998 0.097246 -0.037992
v -0.190998 0.149503 -0.037992
v -0.179916 0.097246 -0.074524
v -0.179916 0.149503 -0.074524
v -0.161920 0.097246 -0.108192
v -0.161920 0.149503 -0.108192
v -0.137702 0.097246 -0.137702
v -0.137702 0.149503 -0.137702
v -0.108192 0.097246 -0.161920
v -0.108192 0.149503 -0.161920
v -0.074524 0.097246 -0.179916
v -0.074524 0.149503 -0.179916
v -0.037992 0.097246 -0.190998
v -0.037992 0.149503 -0.190998
v 0.146964 0.027032 -0.354802
v 0.213358 0.027032 -0.319313
v 0.271553 0.027032 -0.271553
v 0.319313 0.027032 -0.213358
v 0.354802 0.027032 -0.146964
v 0.376656 0.027032 -0.074921
v 0.384035 0.027032 -0.000000
v 0.376656 0.027032 0.074921
v 0.354802 0.027032 0.146964
v 0.319313 0.027032 0.213358
v 0.271553 0.027032 0.271553
v 0.213358 0.027032 0.319313
v 0.146964 0.027032 0.354802
v 0.074921 0.027032 0.376655
v 0.000000 0.027032 0.384035
v -0.074921 0.027032 0.376655
v -0.146964 0.027032 0.354802
v -0.213358 0.027032 0.319313
v -0.271554 0.027032 0.271553
v -0.319313 0.027032 0.213358
v -0.354802 0.027032 0.146964
v -0.376656 0.027032 0.074921
v -0.384035 0.027032 -0.000000
v -0.376656 0.027032 -0.074921
v -0.354802 0.027032 -0.146964
v -0.319313 0.027032 -0.213358
v -0.271554 0.027032 -0.271553
v -0.213358 0.027032 -0.319313
v -0.146964 0.027032 -0.354802
v -0.074921 0.027032 -0.376655
v 0.283827 0.072669 0.056457
v -0.056457 0.072669 0.283827
v -0.283827 0.072669 -0.056457
v 0.267359 0.072669 -0.110744
v 0.056457 0.072669 -0.283827
v 0.110744 0.072669 0.267359
v -0.267359 0.072669 0.110744
v -0.110744 0.072669 -0.267359
v 0.110744 0.072669 -0.267359
v 0.160775 0.072669 -0.240617
v 0.267359 0.072669 0.110744
v 0.240617 0.072669 0.160775
v -0.110744 0.072669 0.267359
v -0.160775 0.072669 0.240617
v -0.267359 0.072669 -0.110744
v -0.240617 0.072669 -0.160775
v 0.283827 0.072669 -0.056457
v 0.289387 0.072669 -0.000000
v 0.056457 0.072669 0.283827
v 0.000000 0.072669 0.289387
v -0.283827 0.072669 0.056457
v -0.289387 0.072669 -0.000000
v 0.204628 0.072669 -0.204628
v 0.240617 0.072669 -0.160775
v -0.056457 0.072669 -0.283827
v 0.000000 0.072669 -0.289387
v 0.204628 0.072669 0.204628
v 0.160775 0.072669 0.240617
v -0.204628 0.072669 0.204628
v -0.240617 0.072669 0.160775
v -0.204628 0.072669 -0.204628
v -0.160775 0.072669 -0.240617
v -0.074921 0.014220 -0.376655
v 0.000000 0.014220 -0.384035
v -0.146964 0.014220 -0.354802
v -0.213358 0.014220 -0.319313
v -0.271554 0.014220 -0.271553
v -0.319313 0.014220 -0.213358
v -0.354802 0.014220 -0.146964
v -0.376656 0.014220 -0.074921
v -0.384035 0.014220 -0.000000
v -0.376656 0.014220 0.074921
v -0.354802 0.014220 0.146964
v -0.319313 0.014220 0.213358
v -0.271554 0.014220 0.271553
v -0.213358 0.014220 0.319313
v -0.146964 0.014220 0.354802
v -0.074921 0.014220 0.376655
v 0.000000 0.014220 0.384035
v 0.074921 0.014220 0.376655
v 0.146964 0.014220 0.354802
v 0.213358 0.014220 0.319313
v 0.271553 0.014220 0.271553
v 0.319313 0.014220 0.213358
v 0.354802 0.014220 0.146964
v 0.376656 0.014220 0.074921
v 0.384035 0.014220 -0.000000
v 0.376656 0.014220 -0.074921
v 0.354802 0.014220 -0.146964
v 0.319313 0.014220 -0.213358
v 0.271553 0.014220 -0.271553
v 0.213358 0.014220 -0.319313
v 0.146964 0.014220 -0.354802
v 0.074921 0.014220 -0.376655
vn 0.9502 -0.2161 0.2245
vn 0.9502 0.2161 0.2245
vn 0.9502 -0.2161 -0.2245
vn 0.9502 0.2161 -0.2245
vn -0.6277 0.5462 -0.5547
vn -0.6277 -0.5462 -0.5547
vn -0.6277 0.5462 0.5547
vn -0.6277 -0.5462 0.5547
vn -0.3704 -0.6568 -0.6568
vn -0.3704 -0.6568 0.6568
vn -0.3704 0.6568 0.6568
vn -0.3704 0.6568 -0.6568
vn -0.6781 -0.5322 -0.5069
vn -0.6781 -0.5322 0.5069
vn -0.6781 0.5322 0.5069
vn -0.6781 0.5322 -0.5069
vn 0.5774 0.5773 -0.5773
vn 0.5774 -0.5773 -0.5773
vn 0.5774 0.5773 0.5773
vn 0.5774 -0.5773 0.5773
vn 0.3679 -0.6777 0.6367
vn 0.3679 0.6777 0.6367
vn 0.3679 -0.6777 -0.6367
vn 0.3679 0.6777 -0.6367
vn -0.3258 -0.6864 0.6502
vn 0.1084 -0.8782 -0.4659
vn 0.1084 -0.8782 0.4659
vn -0.3258 -0.6864 -0.6502
vn 0.5774 -0.5774 -0.5773
vn 0.5774 -0.5774 0.5774
vn -0.5773 -0.5774 -0.5774
vn -0.5773 -0.5774 0.5774
vn -0.6581 -0.5576 -0.5059
vn -0.6581 -0.5576 0.5059
vn 0.9406 0.1831 -0.2860
vn 0.9498 0.1201 -0.2888
vn 0.9568 -0.0000 -0.2909
vn 0.9498 -0.1201 -0.2888
vn 0.9406 -0.1831 -0.2860
vn 0.9580 0.1788 -0.2243
vn 0.9658 0.1190 -0.2302
vn 0.9727 -0.0000 -0.2319
vn 0.9658 -0.1190 -0.2302
vn 0.9580 -0.1788 -0.2243
vn 0.9789 0.1722 -0.1101
vn 0.9870 0.1144 -0.1129
vn 0.9935 -0.0000 -0.1136
vn 0.9870 -0.1144 -0.1129
vn 0.9789 -0.1722 -0.1101
vn 0.9854 0.1700 -0.0000
vn 0.9936 0.1129 -0.0000
vn 1.0000 -0.0000 -0.0000
vn 0.9936 -0.1129 -0.0000
vn 0.9854 -0.1700 -0.0000
vn 0.9789 0.1722 0.1101
vn 0.9870 0.1144 0.1129
vn 0.9935 -0.0000 0.1136
vn 0.9870 -0.1144 0.1129
vn 0.9789 -0.1722 0.1101
vn 0.9580 0.1788 0.2243
vn 0.9658 0.1190 0.2302
vn 0.9727 -0.0000 0.2319
vn 0.9658 -0.1190 0.2302
vn 0.9580 -0.1788 0.2243
vn 0.9406 0.1831 0.2860
vn 0.9499 0.1197 0.2888
vn 0.9568 -0.0000 0.2909
vn 0.9499 -0.1197 0.2888
vn 0.9406 -0.1831 0.2860
vn 0.7071 -0.7071 -0.0000
vn 0.7857 0.6186 -0.0000
vn 0.2346 0.9721 -0.0000
vn 0.1669 0.5174 -0.8393
vn -0.0000 0.5174 -0.8557
vn -0.0000 0.6310 -0.7758
vn -0.0000 0.6857 -0.7279
vn 0.1514 0.6310 -0.7609
vn 0.1420 0.6857 -0.7139
vn 0.2969 0.6310 -0.7167
vn 0.2785 0.6857 -0.6725
vn 0.4310 0.6310 -0.6451
vn 0.4044 0.6857 -0.6052
vn 0.5486 0.6310 -0.5486
vn 0.5147 0.6857 -0.5147
vn 0.6451 0.6310 -0.4310
vn 0.6052 0.6857 -0.4044
vn 0.7167 0.6310 -0.2969
vn 0.6725 0.6857 -0.2785
vn 0.7609 0.6310 -0.1514
vn 0.7139 0.6857 -0.1420
vn 0.7758 0.6310 -0.0000
vn 0.7279 0.6857 -0.0000
vn 0.7609 0.6310 0.1514
vn 0.7139 0.6857 0.1420
vn 0.7167 0.6310 0.2969
vn 0.6725 0.6857 0.2785
vn 0.6451 0.6310 0.4310
vn 0.6052 0.6857 0.4044
vn 0.5486 0.6310 0.5486
vn 0.5147 0.6857 0.5147
vn 0.4310 0.6310 0.6451
vn 0.4044 0.6857 0.6052
vn 0.2969 0.6310 0.7167
vn 0.2785 0.6857 0.6725
vn 0.1514 0.6310 0.7609
vn 0.1420 0.6857 0.7139
vn -0.0000 0.6310 0.7758
vn -0.0000 0.6857 0.7279
vn -0.1514 0.6310 0.7609
vn -0.1420 0.6857 0.7139
vn -0.2969 0.6310 0.7167
vn -0.2785 0.6857 0.6725
vn -0.4310 0.6310 0.6451
vn -0.4044 0.6857 0.6052
vn -0.5486 0.6310 0.5486
vn -0.5147 0.6857 0.5147
vn -0.6451 0.6310 0.4310
vn -0.6052 0.6857 0.4044
vn -0.7167 0.6310 0.2969
vn -0.6725 0.6857 0.2785
vn -0.7609 0.6310 0.1514
vn -0.7139 0.6857 0.1420
vn -0.7758 0.6310 -0.0000
vn -0.7279 0.6857 -0.0000
vn -0.7609 0.6310 -0.1514
vn -0.7139 0.6857 -0.1420
vn -0.7167 0.6310 -0.2969
vn -0.6725 0.6857 -0.2785
vn -0.6451 0.6310 -0.4310
vn -0.6052 0.6857 -0.4044
vn -0.5486 0.6310 -0.5486
vn -0.5147 0.6857 -0.5147
vn -0.4310 0.6310 -0.6451
vn -0.4044 0.6857 -0.6052
vn -0.2969 0.6310 -0.7167
vn -0.2785 0.6857 -0.6725
vn -0.1514 0.6310 -0.7609
vn -0.1420 0.6857 -0.7139
vn 0.3275 0.5174 -0.7906
vn 0.4754 0.5174 -0.7115
vn 0.6051 0.5174 -0.6051
vn 0.7115 0.5174 -0.4754
vn 0.7906 0.5174 -0.3275
vn 0.8393 0.5174 -0.1669
vn 0.8557 0.5174 -0.0000
vn 0.8393 0.5174 0.1669
vn 0.7906 0.5174 0.3275
vn 0.7115 0.5174 0.4754
vn 0.6051 0.5174 0.6051
vn 0.4754 0.5174 0.7115
vn 0.3275 0.5174 0.7906
vn 0.1669 0.5174 0.8393
vn -0.0000 0.5174 0.8557
vn -0.1669 0.5174 0.8393
vn -0.3275 0.5174 0.7906
vn -0.4754 0.5174 0.7115
vn -0.6051 0.5174 0.6051
vn -0.7115 0.5174 0.4754
vn -0.7906 0.5174 0.3275
vn -0.8393 0.5174 0.1669
vn -0.8557 0.5174 -0.0000
vn -0.8393 0.5174 -0.1669
vn -0.7906 0.5174 -0.3275
vn -0.7115 0.5174 -0.4754
vn -0.6051 0.5174 -0.6051
vn -0.4754 0.5174 -0.7115
vn -0.3275 0.5174 -0.7906
vn -0.1669 0.5174 -0.8393
vn 0.3431 0.9368 0.0682
vn -0.0682 0.9368 0.3431
vn -0.3431 0.9368 -0.0682
vn 0.3232 0.9368 -0.1339
vn 0.0682 0.9368 -0.3431
vn 0.1339 0.9368 0.3232
vn -0.3232 0.9368 0.1339
vn -0.1339 0.9368 -0.3232
vn 0.1339 0.9368 -0.3232
vn 0.1943 0.9368 -0.2909
vn 0.3232 0.9368 0.1339
vn 0.2909 0.9368 0.1943
vn -0.1339 0.9368 0.3232
vn -0.1943 0.9368 0.2909
vn -0.3232 0.9368 -0.1339
vn -0.2909 0.9368 -0.1943
vn 0.3431 0.9368 -0.0682
vn 0.3498 0.9368 -0.0000
vn 0.0682 0.9368 0.3431
vn -0.0000 0.9368 0.3498
vn -0.3431 0.9368 0.0682
vn -0.3498 0.9368 -0.0000
vn 0.2474 0.9368 -0.2474
vn 0.2909 0.9368 -0.1943
vn -0.0682 0.9368 -0.3431
vn -0.0000 0.9368 -0.3498
vn 0.2474 0.9368 0.2474
vn 0.1943 0.9368 0.2909
vn -0.2474 0.9368 0.2474
vn -0.2909 0.9368 0.1943
vn -0.2474 0.9368 -0.2474
vn -0.1943 0.9368 -0.2909
vn -0.1420 -0.6857 -0.7139
vn -0.0000 -0.6857 -0.7279
vn -0.2785 -0.6857 -0.6725
vn -0.4044 -0.6857 -0.6052
vn -0.5147 -0.6857 -0.5147
vn -0.6052 -0.6857 -0.4044
vn -0.6725 -0.6857 -0.2785
vn -0.7139 -0.6857 -0.1420
vn -0.7279 -0.6857 -0.0000
vn -0.7139 -0.6857 0.1420
vn -0.6725 -0.6857 0.2785
vn -0.6052 -0.6857 0.4044
vn -0.5147 -0.6857 0.5147
vn -0.4044 -0.6857 0.6052
vn -0.2785 -0.6857 0.6725
vn -0.1420 -0.6857 0.7139
vn -0.0000 -0.6857 0.7279
vn 0.1420 -0.6857 0.7139
vn 0.2785 -0.6857 0.6725
vn 0.4044 -0.6857 0.6052
vn 0.5147 -0.6857 0.5147
vn 0.6052 -0.6857 0.4044
vn 0.6725 -0.6857 0.2785
vn 0.7139 -0.6857 0.1420
vn 0.7279 -0.6857 -0.0000
vn 0.7139 -0.6857 -0.1420
vn 0.6725 -0.6857 -0.2785
vn 0.6052 -0.6857 -0.4044
vn 0.5147 -0.6857 -0.5147
vn 0.4044 -0.6857 -0.6052
vn 0.2785 -0.6857 -0.6725
vn 0.1420 -0.6857 -0.7139
vt 0.625000 0.500000
vt 0.875000 0.500000
vt 0.875000 0.750000
vt 0.625000 0.750000
vt 0.375000 0.750000
vt 0.625000 1.000000
vt 0.375000 1.000000
vt 0.125000 0.500000
vt 0.375000 0.500000
vt 0.375000 0.572655
vt 0.125000 0.590427
vt 0.596508 0.522408
vt 0.596508 0.727592
vt 0.375000 0.250000
vt 0.625000 0.250000
vt 0.444356 0.878262
vt 0.437021 0.705233
vt 0.375000 0.728718
vt 0.775338 0.720209
vt 0.421249 0.333203
vt 0.609057 0.318325
vt 0.125000 0.659573
vt 0.403492 0.522408
vt 0.403492 0.727592
vt 0.403492 0.678191
vt 0.403492 0.682754
vt 0.438342 0.736400
vt 0.427263 0.475064
vt 0.375000 0.521282
vt 0.438342 0.736400
vt 0.428584 0.506232
vt 0.427263 0.475064
vt 0.567909 0.562500
vt 0.567909 0.601059
vt 0.562500 0.601059
vt 0.562500 0.562500
vt 0.567909 0.500000
vt 0.562500 0.500000
vt 0.567909 0.437500
vt 0.562500 0.437500
vt 0.567909 0.398711
vt 0.562500 0.398711
vt 0.531250 0.562500
vt 0.531250 0.500000
vt 0.531250 0.437500
vt 0.531250 0.398711
vt 0.531250 0.601059
vt 0.500000 0.601059
vt 0.500000 0.562500
vt 0.500000 0.500000
vt 0.500000 0.437500
vt 0.500000 0.398711
vt 0.468750 0.500000
vt 0.468750 0.437500
vt 0.468750 0.398711
vt 0.468750 0.601059
vt 0.468750 0.562500
vt 0.437500 0.601059
vt 0.437500 0.562500
vt 0.437500 0.500000
vt 0.437500 0.437500
vt 0.437500 0.398711
vt 0.423594 0.500000
vt 0.423594 0.437500
vt 0.423594 0.398711
vt 0.423594 0.601059
vt 0.423594 0.562500
vt 0.403492 0.571807
vt 0.375000 0.677345
vt 0.125000 0.750000
vt 0.403492 0.567243
vt 0.218750 0.500000
vt 0.187500 0.500000
vt 0.218750 0.500000
vt 0.718750 0.500000
vt 0.687500 0.500000
vt 0.718750 0.500000
vt 1.000000 0.500000
vt 1.000000 1.000000
vt 0.968750 1.000000
vt 0.968750 0.500000
vt 0.468750 0.500000
vt 0.437500 0.500000
vt 0.468750 0.500000
vt 0.937500 1.000000
vt 0.937500 0.500000
vt 0.562500 0.500000
vt 0.906250 1.000000
vt 0.906250 0.500000
vt 0.312500 0.500000
vt 0.281250 0.500000
vt 0.281250 0.500000
vt 0.312500 0.500000
vt 0.812500 0.500000
vt 0.781250 0.500000
vt 0.781250 0.500000
vt 0.875000 1.000000
vt 0.062500 0.500000
vt 0.031250 0.500000
vt 0.031250 0.500000
vt 0.062500 0.500000
vt 0.843750 1.000000
vt 0.843750 0.500000
vt 0.812500 1.000000
vt 0.656250 0.500000
vt 0.656250 0.500000
vt 0.781250 1.000000
vt 0.406250 0.500000
vt 0.750000 1.000000
vt 0.750000 0.500000
vt 0.156250 0.500000
vt 0.156250 0.500000
vt 0.718750 1.000000
vt 0.687500 1.000000
vt 0.500000 0.500000
vt 0.656250 1.000000
vt 0.250000 0.500000
vt 0.250000 0.500000
vt 0.593750 1.000000
vt 0.593750 0.500000
vt 0.968750 0.500000
vt 0.562500 1.000000
vt 0.593750 0.500000
vt 0.531250 1.000000
vt 0.343750 0.500000
vt 0.500000 1.000000
vt 0.093750 0.500000
vt 0.093750 0.500000
vt 0.468750 1.000000
vt 0.937500 0.500000
vt 0.437500 1.000000
vt 0.406250 1.000000
vt 0.343750 1.000000
vt 0.312500 1.000000
vt 0.281250 1.000000
vt 0.250000 1.000000
vt 0.218750 1.000000
vt 0.000000 0.500000
vt 0.187500 1.000000
vt 0.156250 1.000000
vt 0.125000 1.000000
vt 0.093750 1.000000
vt 0.062500 1.000000
vt 0.296822 0.485388
vt 0.250000 0.490000
vt 0.203178 0.485388
vt 0.158156 0.471731
vt 0.116663 0.449553
vt 0.080294 0.419706
vt 0.050447 0.383337
vt 0.028269 0.341844
vt 0.014612 0.296822
vt 0.010000 0.250000
vt 0.014612 0.203178
vt 0.028269 0.158156
vt 0.050447 0.116663
vt 0.080294 0.080294
vt 0.116663 0.050447
vt 0.158156 0.028269
vt 0.203178 0.014612
vt 0.250000 0.010000
vt 0.296822 0.014612
vt 0.341844 0.028269
vt 0.383337 0.050447
vt 0.419706 0.080294
vt 0.449553 0.116663
vt 0.471731 0.158156
vt 0.485388 0.203178
vt 0.490000 0.250000
vt 0.485388 0.296822
vt 0.471731 0.341844
vt 0.449553 0.383337
vt 0.419706 0.419706
vt 0.383337 0.449553
vt 0.341844 0.471731
vt 0.031250 1.000000
vt 0.000000 1.000000
vt 0.750000 0.490000
vt 0.796822 0.485388
vt 0.841844 0.471731
vt 0.883337 0.449553
vt 0.919706 0.419706
vt 0.949553 0.383337
vt 0.971731 0.341844
vt 0.985388 0.296822
vt 0.990000 0.250000
vt 0.985388 0.203178
vt 0.971731 0.158156
vt 0.949553 0.116663
vt 0.919706 0.080294
vt 0.883337 0.050447
vt 0.841844 0.028269
vt 0.796822 0.014612
vt 0.750000 0.010000
vt 0.703178 0.014612
vt 0.658156 0.028269
vt 0.616663 0.050447
vt 0.580294 0.080294
vt 0.550447 0.116663
vt 0.528269 0.158156
vt 0.514612 0.203178
vt 0.510000 0.250000
vt 0.514612 0.296822
vt 0.528269 0.341844
vt 0.550447 0.383337
vt 0.580294 0.419706
vt 0.616663 0.449553
vt 0.658156 0.471731
vt 0.703178 0.485388
s 1
usemtl Material
f 17/1/17 12/2/12 11/3/11 19/4/19
f 20/5/20 19/4/19 11/6/11 10/7/10
f 9/8/9 18/9/18 71/10/70 26/11/26
f 1/12/1 3/13/3 23/13/23 21/12/21
f 9/14/9 12/15/12 17/1/17 18/9/18
f 8/16/8 25/17/25 27/18/27 10/7/10
f 7/19/7 8/16/8 10/7/10 11/3/11
f 6/20/6 5/21/5 12/15/12 9/14/9
f 5/21/5 7/19/7 11/3/11 12/15/12
f 13/20/13 14/16/14 15/19/15 16/21/16
f 7/19/7 5/21/5 16/21/16 15/19/15
f 8/16/8 7/19/7 15/19/15 14/16/14
f 5/21/5 6/20/6 13/20/13 16/21/16
f 26/11/26 27/22/27 30/22/30 29/11/29
f 2/23/2 18/9/18 17/1/17 1/12/1
f 4/24/4 72/25/71 74/26/72 24/24/24
f 3/13/3 4/24/4 24/24/24 23/13/23
f 30/18/30 32/27/32 31/28/31 29/29/29
f 34/30/34 25/17/25 8/16/8 14/16/14 13/20/13 6/20/6 28/31/28 33/32/33
f 26/29/26 28/31/28 6/20/6 9/14/9
f 31/28/31 33/32/33 28/31/28 26/29/26 29/29/29
f 33/32/33 31/28/31 32/27/32 34/30/34
f 3/13/3 1/12/1 17/1/17 19/4/19
f 27/18/27 25/17/25 34/30/34 32/27/32 30/18/30
f 36/33/36 35/34/35 40/35/40 41/36/41
f 37/37/37 36/33/36 41/36/41 42/38/42
f 38/39/38 37/37/37 42/38/42 43/40/43
f 39/41/39 38/39/38 43/40/43 44/42/44
f 42/38/42 41/36/41 46/43/46 47/44/47
f 43/40/43 42/38/42 47/44/47 48/45/48
f 44/42/44 43/40/43 48/45/48 49/46/49
f 41/36/41 40/35/40 45/47/45 46/43/46
f 46/43/46 45/47/45 50/48/50 51/49/51
f 47/44/47 46/43/46 51/49/51 52/50/52
f 48/45/48 47/44/47 52/50/52 53/51/53
f 49/46/49 48/45/48 53/51/53 54/52/54
f 53/51/53 52/50/52 57/53/57 58/54/58
f 54/52/54 53/51/53 58/54/58 59/55/59
f 51/49/51 50/48/50 55/56/55 56/57/56
f 52/50/52 51/49/51 56/57/56 57/53/57
f 56/57/56 55/56/55 60/58/60 61/59/61
f 57/53/57 56/57/56 61/59/61 62/60/62
f 58/54/58 57/53/57 62/60/62 63/61/63
f 59/55/59 58/54/58 63/61/63 64/62/64
f 63/61/63 62/60/62 67/63/67 68/64/68
f 64/62/64 63/61/63 68/64/68 69/65/69
f 61/59/61 60/58/60 65/66/65 66/67/66
f 62/60/62 61/59/61 66/67/66 67/63/67
f 2/23/2 1/12/1 21/12/21 22/23/22
f 18/9/18 2/23/2 73/68/71 71/10/70
f 19/4/19 20/5/20 4/24/4 3/13/3
f 26/11/26 71/10/70 70/69/70 27/22/27
f 27/22/27 70/69/70 20/5/20 10/70/10
f 71/10/70 73/68/71 72/25/71 70/69/70
f 70/69/70 72/25/71 4/24/4 20/5/20
f 74/26/72 72/25/71 73/68/71 75/71/72
f 75/71/72 73/68/71 2/23/2 22/23/22
f 128/72/125 130/73/127 186/73/183 174/74/171
f 172/75/169 182/76/179 150/76/147 149/77/146
f 78/78/75 79/79/76 81/80/78 80/81/77
f 112/82/109 114/83/111 184/83/181 173/84/170
f 173/84/170 184/83/181 158/83/155 157/82/154
f 80/81/77 81/80/78 83/85/80 82/86/79
f 106/38/103 108/44/105 190/44/187 177/87/174
f 174/74/171 186/73/183 166/73/163 165/72/162
f 82/86/79 83/85/80 85/88/82 84/89/81
f 122/90/119 124/91/121 192/92/189 178/93/175
f 175/94/172 188/95/185 147/96/144 146/94/143
f 84/89/81 85/88/82 87/97/84 86/2/83
f 138/98/135 140/99/137 196/100/193 179/101/176
f 177/87/174 190/44/187 155/44/152 154/38/151
f 86/2/83 87/97/84 89/102/86 88/103/85
f 84/89/81 86/2/83 194/2/191 181/89/178
f 178/93/175 192/92/189 163/91/160 162/90/159
f 88/103/85 89/102/86 91/104/88 90/94/87
f 100/105/97 102/1/99 198/1/195 183/106/180
f 179/101/176 196/100/193 171/99/168 170/98/167
f 90/94/87 91/104/88 93/107/90 92/96/89
f 116/108/113 118/9/115 200/9/197 185/108/182
f 181/89/178 194/2/191 144/2/141 143/89/140
f 92/96/89 93/107/90 95/109/92 94/110/91
f 132/111/129 134/8/131 202/8/199 187/112/184
f 183/106/180 198/1/195 152/1/149 151/105/148
f 94/110/91 95/109/92 97/113/94 96/77/93
f 94/110/91 96/77/93 172/75/169 189/110/186
f 185/108/182 200/9/197 160/9/157 159/108/156
f 96/77/93 97/113/94 99/114/96 98/76/95
f 110/115/107 112/82/109 173/84/170 191/115/188
f 187/112/184 202/8/199 168/8/165 167/111/164
f 98/76/95 99/114/96 101/116/98 100/105/97
f 126/117/123 128/72/125 174/74/171 193/118/190
f 189/110/186 172/75/169 149/77/146 148/110/145
f 100/105/97 101/116/98 103/6/100 102/1/99
f 88/103/85 90/94/87 175/94/172 195/103/192
f 191/115/188 173/84/170 157/82/154 156/115/153
f 102/1/99 103/6/100 105/119/102 104/120/101
f 78/78/75 80/81/77 176/121/173 197/78/194
f 193/118/190 174/74/171 165/72/162 164/117/161
f 104/120/101 105/119/102 107/122/104 106/38/103
f 104/120/101 106/38/103 177/87/174 199/123/196
f 195/103/192 175/94/172 146/94/143 145/103/142
f 106/38/103 107/122/104 109/124/106 108/44/105
f 120/125/117 122/90/119 178/93/175 201/125/198
f 197/78/194 176/121/173 76/81/73 77/78/74
f 108/44/105 109/124/106 111/126/108 110/115/107
f 136/127/133 138/98/135 179/101/176 203/128/200
f 199/123/196 177/87/174 154/38/151 153/120/150
f 110/115/107 111/126/108 113/129/110 112/82/109
f 82/86/79 84/89/81 181/89/178 180/130/177
f 201/125/198 178/93/175 162/90/159 161/125/158
f 112/82/109 113/129/110 115/131/112 114/83/111
f 98/76/95 100/105/97 183/106/180 182/76/179
f 203/128/200 179/101/176 170/98/167 169/127/166
f 114/83/111 115/131/112 117/132/114 116/108/113
f 114/83/111 116/108/113 185/108/182 184/83/181
f 180/130/177 181/89/178 143/89/140 142/86/139
f 116/108/113 117/132/114 119/7/116 118/9/115
f 130/73/127 132/111/129 187/112/184 186/73/183
f 182/76/179 183/106/180 151/105/148 150/76/147
f 118/9/115 119/7/116 121/133/118 120/125/117
f 92/96/89 94/110/91 189/110/186 188/95/185
f 184/83/181 185/108/182 159/108/156 158/83/155
f 120/125/117 121/133/118 123/134/120 122/90/119
f 108/44/105 110/115/107 191/115/188 190/44/187
f 186/73/183 187/112/184 167/111/164 166/73/163
f 122/90/119 123/134/120 125/135/122 124/91/121
f 124/91/121 126/117/123 193/118/190 192/92/189
f 188/95/185 189/110/186 148/110/145 147/96/144
f 124/91/121 125/135/122 127/136/124 126/117/123
f 86/2/83 88/103/85 195/103/192 194/2/191
f 190/44/187 191/115/188 156/115/153 155/44/152
f 126/117/123 127/136/124 129/137/126 128/72/125
f 140/99/137 78/138/75 197/138/194 196/100/193
f 192/92/189 193/118/190 164/117/161 163/91/160
f 128/72/125 129/137/126 131/139/128 130/73/127
f 102/1/99 104/120/101 199/123/196 198/1/195
f 194/2/191 195/103/192 145/103/142 144/2/141
f 130/73/127 131/139/128 133/140/130 132/111/129
f 118/9/115 120/125/117 201/125/198 200/9/197
f 196/100/193 197/138/194 77/138/74 171/99/168
f 132/111/129 133/140/130 135/141/132 134/8/131
f 80/81/77 82/86/79 180/130/177 176/121/173
f 198/1/195 199/123/196 153/120/150 152/1/149
f 134/8/131 135/141/132 137/142/134 136/127/133
f 134/8/131 136/127/133 203/128/200 202/8/199
f 200/9/197 201/125/198 161/125/158 160/9/157
f 136/127/133 137/142/134 139/143/136 138/98/135
f 81/144/78 79/145/76 141/146/138 139/147/136 137/148/134 135/149/132 133/150/130 131/151/128 129/152/126 127/153/124 125/154/122 123/155/120 121/156/118 119/157/116 117/158/114 115/159/112 113/160/110 111/161/108 109/162/106 107/163/104 105/164/102 103/165/100 101/166/98 99/167/96 97/168/94 95/169/92 93/170/90 91/171/88 89/172/86 87/173/84 85/174/82 83/175/80
f 142/86/139 143/89/140 233/89/230 234/86/231
f 138/98/135 139/143/136 141/176/138 140/99/137
f 90/94/87 92/96/89 188/95/185 175/94/172
f 176/121/173 180/130/177 142/86/139 76/81/73
f 140/99/137 141/176/138 79/177/76 78/138/75
f 202/8/199 203/128/200 169/127/166 168/8/165
f 96/77/93 98/76/95 182/76/179 172/75/169
f 205/178/202 235/179/232 234/180/231 233/181/230 232/182/229 231/183/228 230/184/227 229/185/226 228/186/225 227/187/224 226/188/223 225/189/222 224/190/221 223/191/220 222/192/219 221/193/218 220/194/217 219/195/216 218/196/215 217/197/214 216/198/213 215/199/212 214/200/211 213/201/210 212/202/209 211/203/208 210/204/207 209/205/206 208/206/205 207/207/204 206/208/203 204/209/201
f 150/76/147 151/105/148 225/105/222 226/76/223
f 158/83/155 159/108/156 217/108/214 218/83/215
f 166/73/163 167/111/164 209/111/206 210/73/207
f 147/96/144 148/110/145 228/110/225 229/96/226
f 155/44/152 156/115/153 220/115/217 221/44/218
f 163/91/160 164/117/161 212/117/209 213/91/210
f 144/2/141 145/103/142 231/103/228 232/2/229
f 152/1/149 153/120/150 223/120/220 224/1/221
f 160/9/157 161/125/158 215/125/212 216/9/213
f 168/8/165 169/127/166 207/127/204 208/8/205
f 76/81/73 142/86/139 234/86/231 235/81/232
f 149/77/146 150/76/147 226/76/223 227/77/224
f 157/82/154 158/83/155 218/83/215 219/82/216
f 171/99/168 77/138/74 205/138/202 204/99/201
f 165/72/162 166/73/163 210/73/207 211/72/208
f 170/98/167 171/99/168 204/99/201 206/98/203
f 146/94/143 147/96/144 229/96/226 230/94/227
f 154/38/151 155/44/152 221/44/218 222/38/219
f 162/90/159 163/91/160 213/91/210 214/90/211
f 143/89/140 144/2/141 232/2/229 233/89/230
f 151/105/148 152/1/149 224/1/221 225/105/222
f 159/108/156 160/9/157 216/9/213 217/108/214
f 167/111/164 168/8/165 208/8/205 209/111/206
f 77/78/74 76/81/73 235/81/232 205/78/202
f 148/110/145 149/77/146 227/77/224 228/110/225
f 156/115/153 157/82/154 219/82/216 220/115/217
f 164/117/161 165/72/162 211/72/208 212/117/209
f 145/103/142 146/94/143 230/94/227 231/103/228
f 153/120/150 154/38/151 222/38/219 223/120/220
f 161/125/158 162/90/159 214/90/211 215/125/212
f 169/127/166 170/98/167 206/98/203 207/127/204
